<?xml version="1.0" standalone="no"?>
<!DOCTYPE svg PUBLIC "-//W3C//DTD SVG 20010904//EN"
 "http://www.w3.org/TR/2001/REC-SVG-20010904/DTD/svg10.dtd">
<svg version="1.0" xmlns="http://www.w3.org/2000/svg"
 width="500.000000pt" height="500.000000pt" viewBox="0 0 500.000000 500.000000"
 preserveAspectRatio="xMidYMid meet">

<g transform="translate(0.000000,500.000000) scale(0.100000,-0.100000)"
fill="#000000" stroke="none">
<path d="M1660 3425 l0 -405 405 0 405 0 0 405 0 405 -405 0 -405 0 0 -405z
m486 140 c30 -12 34 -17 25 -34 -10 -18 -13 -18 -55 -3 -33 12 -53 14 -82 7
-34 -9 -39 -14 -42 -42 -4 -35 15 -49 94 -73 60 -18 94 -49 100 -91 5 -31 1
-42 -23 -69 -26 -29 -37 -34 -89 -37 -47 -4 -68 0 -104 19 -47 25 -55 35 -41
57 7 11 14 9 39 -9 61 -45 164 -33 170 21 4 32 -19 52 -86 74 -96 31 -134 85
-102 145 25 47 125 65 196 35z"/>
<path d="M2510 3205 l0 -405 405 0 405 0 0 405 0 405 -405 0 -405 0 0 -405z
m233 25 c62 -199 53 -197 106 -30 43 134 49 145 71 145 23 0 28 -10 69 -142
25 -79 48 -143 51 -143 3 0 25 65 50 145 41 133 46 145 68 145 18 0 22 -4 18
-17 -3 -10 -30 -90 -59 -178 -49 -146 -56 -160 -79 -163 -23 -3 -26 3 -68 138
-24 77 -46 140 -50 140 -3 0 -26 -62 -51 -137 -41 -124 -48 -138 -70 -141 -23
-3 -27 6 -82 170 -31 96 -57 177 -57 181 0 4 10 7 23 7 21 0 27 -12 60 -120z"/>
<path d="M1660 2575 l0 -405 405 0 405 0 0 405 0 405 -405 0 -405 0 0 -405z
m497 42 c95 -212 90 -197 60 -197 -20 0 -28 8 -41 45 l-18 45 -98 0 -98 0 -19
-45 c-14 -35 -23 -45 -42 -45 -28 0 -33 -16 62 197 65 148 74 163 97 163 23 0
32 -15 97 -163z"/>
<path d="M2042 2693 c-6 -16 -22 -54 -36 -85 l-26 -58 79 0 80 0 -37 85 c-20
46 -40 85 -44 85 -3 0 -11 -12 -16 -27z"/>
<path d="M2510 2355 l0 -405 405 0 405 0 0 405 0 405 -405 0 -405 0 0 -405z
m495 203 c40 -18 59 -61 45 -104 -6 -18 -19 -38 -28 -43 -14 -8 -11 -13 16
-36 25 -21 32 -35 32 -62 0 -79 -43 -103 -185 -103 l-95 0 0 180 0 180 95 0
c52 0 106 -5 120 -12z"/>
<path d="M2830 2475 l0 -55 74 0 c82 0 106 13 106 55 0 38 -35 55 -112 55
l-68 0 0 -55z"/>
<path d="M2830 2310 l0 -60 74 0 c59 0 78 4 100 21 31 24 33 52 6 79 -17 17
-33 20 -100 20 l-80 0 0 -60z"/>
<path d="M2350 1550 c0 -73 3 -90 15 -90 12 0 15 17 15 90 0 73 -3 90 -15 90
-12 0 -15 -17 -15 -90z"/>
<path d="M2490 1550 c0 -72 3 -90 15 -90 10 0 15 16 17 62 l3 63 45 -62 c25
-35 53 -63 63 -63 15 0 17 11 17 90 0 72 -3 90 -15 90 -10 0 -15 -16 -17 -62
l-3 -63 -48 63 c-67 87 -77 83 -77 -28z"/>
</g>
</svg>
