<svg width="167" height="46" viewBox="0 0 167 46" fill="none" xmlns="http://www.w3.org/2000/svg">
<g filter="url(#filter0_d)">
<path d="M20.5 1.5C17.6125 1.5 15.8841 1.94308 14.7855 2.49554C14.2355 2.77246 13.845 3.06323 13.5824 3.36092C13.3184 3.65862 13.152 4.09615 13.152 4.09615C13.1089 4.20736 13.0802 4.3237 13.0667 4.44231L12.3352 13.9186C12.3256 13.9768 12.3449 14.0709 12.3352 14.1346L12.25 15.0872C12.242 15.1734 12.242 15.26 12.25 15.3462C12.25 19.9154 15.9625 23.6538 20.5 23.6538C25.0375 23.6538 28.75 19.9154 28.75 15.3462V15.1302C28.7502 15.1158 28.7502 15.1015 28.75 15.0872L27.9333 4.44231C27.9198 4.3237 27.8911 4.20736 27.848 4.09615C27.848 4.09615 27.6816 3.65862 27.4176 3.36092C27.155 3.06185 26.7645 2.77108 26.2145 2.49554C25.1159 1.94169 23.3875 1.5 20.5 1.5ZM20.5 23.6538C11.425 23.6538 4 27.9545 4 31.8314V37.5H37V31.8314C37 28.1483 30.2873 24.0914 21.8324 23.6968C21.3889 23.6673 20.9445 23.653 20.5 23.6538ZM20.5 4.26923C23.1125 4.26923 24.4174 4.68462 24.9688 4.96154C25.153 5.05431 25.175 5.09031 25.2272 5.13462L25.7855 12.2308C24.5205 12.3083 22.7962 12.5769 20.5 12.5769C18.2037 12.5769 16.4809 12.3083 15.2145 12.2308L15.7728 5.13462C15.8236 5.09031 15.847 5.05431 16.0312 4.96154C16.5826 4.68462 17.8875 4.26923 20.5 4.26923ZM19.3821 5.65385V7.29877H17.75V9.54877H19.3835V11.1923H21.6165V9.54738H23.25V7.29877H21.6165V5.65385H19.3835H19.3821ZM16.375 26.7692L19.8991 34.7308H6.75V31.8314C6.75 30.7998 10.2563 27.7786 16.375 26.7692ZM24.625 26.7692C30.7437 27.78 34.25 30.7998 34.25 31.8314V34.7308H21.1009L24.625 26.7692Z" fill="#FAFBFD"/>
</g>
<g filter="url(#filter1_d)">
<path d="M74.425 10.95V28.5H70.15V17.975L66.225 28.5H62.775L58.825 17.95V28.5H54.55V10.95H59.6L64.525 23.1L69.4 10.95H74.425ZM91.7492 14.55L82.9992 35.125H78.3992L81.5992 28.025L75.9242 14.55H80.6992L83.9242 23.275L87.1242 14.55H91.7492ZM99.6451 28.675C98.3618 28.675 97.2118 28.4667 96.1951 28.05C95.1785 27.6333 94.3618 27.0167 93.7451 26.2C93.1451 25.3833 92.8285 24.4 92.7951 23.25H97.3451C97.4118 23.9 97.6368 24.4 98.0201 24.75C98.4035 25.0833 98.9035 25.25 99.5201 25.25C100.153 25.25 100.653 25.1083 101.02 24.825C101.387 24.525 101.57 24.1167 101.57 23.6C101.57 23.1667 101.42 22.8083 101.12 22.525C100.837 22.2417 100.478 22.0083 100.045 21.825C99.6285 21.6417 99.0285 21.4333 98.2451 21.2C97.1118 20.85 96.1868 20.5 95.4701 20.15C94.7535 19.8 94.1368 19.2833 93.6201 18.6C93.1035 17.9167 92.8451 17.025 92.8451 15.925C92.8451 14.2917 93.4368 13.0167 94.6201 12.1C95.8035 11.1667 97.3451 10.7 99.2451 10.7C101.178 10.7 102.737 11.1667 103.92 12.1C105.103 13.0167 105.737 14.3 105.82 15.95H101.195C101.162 15.3833 100.953 14.9417 100.57 14.625C100.187 14.2917 99.6951 14.125 99.0951 14.125C98.5785 14.125 98.1618 14.2667 97.8451 14.55C97.5285 14.8167 97.3701 15.2083 97.3701 15.725C97.3701 16.2917 97.6368 16.7333 98.1701 17.05C98.7035 17.3667 99.5368 17.7083 100.67 18.075C101.803 18.4583 102.72 18.825 103.42 19.175C104.137 19.525 104.753 20.0333 105.27 20.7C105.787 21.3667 106.045 22.225 106.045 23.275C106.045 24.275 105.787 25.1833 105.27 26C104.77 26.8167 104.037 27.4667 103.07 27.95C102.103 28.4333 100.962 28.675 99.6451 28.675ZM128.701 14.55L124.926 28.5H120.201L118.001 19.45L115.726 28.5H111.026L107.226 14.55H111.501L113.476 24.525L115.826 14.55H120.351L122.726 24.475L124.676 14.55H128.701ZM129.481 21.5C129.481 20.0667 129.748 18.8083 130.281 17.725C130.831 16.6417 131.573 15.8083 132.506 15.225C133.44 14.6417 134.481 14.35 135.631 14.35C136.615 14.35 137.473 14.55 138.206 14.95C138.956 15.35 139.531 15.875 139.931 16.525V14.55H144.206V28.5H139.931V26.525C139.515 27.175 138.931 27.7 138.181 28.1C137.448 28.5 136.59 28.7 135.606 28.7C134.473 28.7 133.44 28.4083 132.506 27.825C131.573 27.225 130.831 26.3833 130.281 25.3C129.748 24.2 129.481 22.9333 129.481 21.5ZM139.931 21.525C139.931 20.4583 139.631 19.6167 139.031 19C138.448 18.3833 137.731 18.075 136.881 18.075C136.031 18.075 135.306 18.3833 134.706 19C134.123 19.6 133.831 20.4333 133.831 21.5C133.831 22.5667 134.123 23.4167 134.706 24.05C135.306 24.6667 136.031 24.975 136.881 24.975C137.731 24.975 138.448 24.6667 139.031 24.05C139.631 23.4333 139.931 22.5917 139.931 21.525ZM151.574 16.525C151.974 15.875 152.549 15.35 153.299 14.95C154.049 14.55 154.907 14.35 155.874 14.35C157.024 14.35 158.066 14.6417 158.999 15.225C159.932 15.8083 160.666 16.6417 161.199 17.725C161.749 18.8083 162.024 20.0667 162.024 21.5C162.024 22.9333 161.749 24.2 161.199 25.3C160.666 26.3833 159.932 27.225 158.999 27.825C158.066 28.4083 157.024 28.7 155.874 28.7C154.891 28.7 154.032 28.5083 153.299 28.125C152.566 27.725 151.991 27.2 151.574 26.55V28.5H147.299V10H151.574V16.525ZM157.674 21.5C157.674 20.4333 157.374 19.6 156.774 19C156.191 18.3833 155.466 18.075 154.599 18.075C153.749 18.075 153.024 18.3833 152.424 19C151.841 19.6167 151.549 20.4583 151.549 21.525C151.549 22.5917 151.841 23.4333 152.424 24.05C153.024 24.6667 153.749 24.975 154.599 24.975C155.449 24.975 156.174 24.6667 156.774 24.05C157.374 23.4167 157.674 22.5667 157.674 21.5Z" fill="#FAFBFD"/>
</g>
<defs>
<filter id="filter0_d" x="0" y="1.5" width="41" height="44" filterUnits="userSpaceOnUse" color-interpolation-filters="sRGB">
<feFlood flood-opacity="0" result="BackgroundImageFix"/>
<feColorMatrix in="SourceAlpha" type="matrix" values="0 0 0 0 0 0 0 0 0 0 0 0 0 0 0 0 0 0 127 0"/>
<feOffset dy="4"/>
<feGaussianBlur stdDeviation="2"/>
<feColorMatrix type="matrix" values="0 0 0 0 0 0 0 0 0 0 0 0 0 0 0 0 0 0 0.25 0"/>
<feBlend mode="normal" in2="BackgroundImageFix" result="effect1_dropShadow"/>
<feBlend mode="normal" in="SourceGraphic" in2="effect1_dropShadow" result="shape"/>
</filter>
<filter id="filter1_d" x="50.55" y="10" width="115.474" height="33.125" filterUnits="userSpaceOnUse" color-interpolation-filters="sRGB">
<feFlood flood-opacity="0" result="BackgroundImageFix"/>
<feColorMatrix in="SourceAlpha" type="matrix" values="0 0 0 0 0 0 0 0 0 0 0 0 0 0 0 0 0 0 127 0"/>
<feOffset dy="4"/>
<feGaussianBlur stdDeviation="2"/>
<feColorMatrix type="matrix" values="0 0 0 0 0 0 0 0 0 0 0 0 0 0 0 0 0 0 0.25 0"/>
<feBlend mode="normal" in2="BackgroundImageFix" result="effect1_dropShadow"/>
<feBlend mode="normal" in="SourceGraphic" in2="effect1_dropShadow" result="shape"/>
</filter>
</defs>
</svg>
