<svg width="167" height="45" viewBox="0 0 167 45" fill="none" xmlns="http://www.w3.org/2000/svg">
<g filter="url(#filter0_d)">
<path d="M20.5 1C17.6125 1 15.8841 1.44308 14.7855 1.99554C14.2355 2.27246 13.845 2.56323 13.5824 2.86092C13.3184 3.15862 13.152 3.59615 13.152 3.59615C13.1089 3.70736 13.0802 3.8237 13.0667 3.94231L12.3352 13.4186C12.3256 13.4768 12.3449 13.5709 12.3352 13.6346L12.25 14.5872C12.242 14.6734 12.242 14.76 12.25 14.8462C12.25 19.4154 15.9625 23.1538 20.5 23.1538C25.0375 23.1538 28.75 19.4154 28.75 14.8462V14.6302C28.7502 14.6158 28.7502 14.6015 28.75 14.5872L27.9333 3.94231C27.9198 3.8237 27.8911 3.70736 27.848 3.59615C27.848 3.59615 27.6816 3.15862 27.4176 2.86092C27.155 2.56185 26.7645 2.27108 26.2145 1.99554C25.1159 1.44169 23.3875 1 20.5 1ZM20.5 23.1538C11.425 23.1538 4 27.4545 4 31.3314V37H37V31.3314C37 27.6483 30.2873 23.5914 21.8324 23.1968C21.3889 23.1673 20.9445 23.153 20.5 23.1538ZM20.5 3.76923C23.1125 3.76923 24.4174 4.18462 24.9688 4.46154C25.153 4.55431 25.175 4.59031 25.2272 4.63462L25.7855 11.7308C24.5205 11.8083 22.7962 12.0769 20.5 12.0769C18.2037 12.0769 16.4809 11.8083 15.2145 11.7308L15.7728 4.63462C15.8236 4.59031 15.847 4.55431 16.0312 4.46154C16.5826 4.18462 17.8875 3.76923 20.5 3.76923ZM19.3821 5.15385V6.79877H17.75V9.04877H19.3835V10.6923H21.6165V9.04738H23.25V6.79877H21.6165V5.15385H19.3835H19.3821ZM16.375 26.2692L19.8991 34.2308H6.75V31.3314C6.75 30.2998 10.2563 27.2786 16.375 26.2692ZM24.625 26.2692C30.7437 27.28 34.25 30.2998 34.25 31.3314V34.2308H21.1009L24.625 26.2692Z" fill="#A4161A"/>
</g>
<g filter="url(#filter1_d)">
<path d="M74.425 10.45V28H70.15V17.475L66.225 28H62.775L58.825 17.45V28H54.55V10.45H59.6L64.525 22.6L69.4 10.45H74.425ZM91.7492 14.05L82.9992 34.625H78.3992L81.5992 27.525L75.9242 14.05H80.6992L83.9242 22.775L87.1242 14.05H91.7492ZM99.6451 28.175C98.3618 28.175 97.2118 27.9667 96.1951 27.55C95.1785 27.1333 94.3618 26.5167 93.7451 25.7C93.1451 24.8833 92.8285 23.9 92.7951 22.75H97.3451C97.4118 23.4 97.6368 23.9 98.0201 24.25C98.4035 24.5833 98.9035 24.75 99.5201 24.75C100.153 24.75 100.653 24.6083 101.02 24.325C101.387 24.025 101.57 23.6167 101.57 23.1C101.57 22.6667 101.42 22.3083 101.12 22.025C100.837 21.7417 100.478 21.5083 100.045 21.325C99.6285 21.1417 99.0285 20.9333 98.2451 20.7C97.1118 20.35 96.1868 20 95.4701 19.65C94.7535 19.3 94.1368 18.7833 93.6201 18.1C93.1035 17.4167 92.8451 16.525 92.8451 15.425C92.8451 13.7917 93.4368 12.5167 94.6201 11.6C95.8035 10.6667 97.3451 10.2 99.2451 10.2C101.178 10.2 102.737 10.6667 103.92 11.6C105.103 12.5167 105.737 13.8 105.82 15.45H101.195C101.162 14.8833 100.953 14.4417 100.57 14.125C100.187 13.7917 99.6951 13.625 99.0951 13.625C98.5785 13.625 98.1618 13.7667 97.8451 14.05C97.5285 14.3167 97.3701 14.7083 97.3701 15.225C97.3701 15.7917 97.6368 16.2333 98.1701 16.55C98.7035 16.8667 99.5368 17.2083 100.67 17.575C101.803 17.9583 102.72 18.325 103.42 18.675C104.137 19.025 104.753 19.5333 105.27 20.2C105.787 20.8667 106.045 21.725 106.045 22.775C106.045 23.775 105.787 24.6833 105.27 25.5C104.77 26.3167 104.037 26.9667 103.07 27.45C102.103 27.9333 100.962 28.175 99.6451 28.175ZM128.701 14.05L124.926 28H120.201L118.001 18.95L115.726 28H111.026L107.226 14.05H111.501L113.476 24.025L115.826 14.05H120.351L122.726 23.975L124.676 14.05H128.701ZM129.481 21C129.481 19.5667 129.748 18.3083 130.281 17.225C130.831 16.1417 131.573 15.3083 132.506 14.725C133.44 14.1417 134.481 13.85 135.631 13.85C136.615 13.85 137.473 14.05 138.206 14.45C138.956 14.85 139.531 15.375 139.931 16.025V14.05H144.206V28H139.931V26.025C139.515 26.675 138.931 27.2 138.181 27.6C137.448 28 136.59 28.2 135.606 28.2C134.473 28.2 133.44 27.9083 132.506 27.325C131.573 26.725 130.831 25.8833 130.281 24.8C129.748 23.7 129.481 22.4333 129.481 21ZM139.931 21.025C139.931 19.9583 139.631 19.1167 139.031 18.5C138.448 17.8833 137.731 17.575 136.881 17.575C136.031 17.575 135.306 17.8833 134.706 18.5C134.123 19.1 133.831 19.9333 133.831 21C133.831 22.0667 134.123 22.9167 134.706 23.55C135.306 24.1667 136.031 24.475 136.881 24.475C137.731 24.475 138.448 24.1667 139.031 23.55C139.631 22.9333 139.931 22.0917 139.931 21.025ZM151.574 16.025C151.974 15.375 152.549 14.85 153.299 14.45C154.049 14.05 154.907 13.85 155.874 13.85C157.024 13.85 158.066 14.1417 158.999 14.725C159.932 15.3083 160.666 16.1417 161.199 17.225C161.749 18.3083 162.024 19.5667 162.024 21C162.024 22.4333 161.749 23.7 161.199 24.8C160.666 25.8833 159.932 26.725 158.999 27.325C158.066 27.9083 157.024 28.2 155.874 28.2C154.891 28.2 154.032 28.0083 153.299 27.625C152.566 27.225 151.991 26.7 151.574 26.05V28H147.299V9.5H151.574V16.025ZM157.674 21C157.674 19.9333 157.374 19.1 156.774 18.5C156.191 17.8833 155.466 17.575 154.599 17.575C153.749 17.575 153.024 17.8833 152.424 18.5C151.841 19.1167 151.549 19.9583 151.549 21.025C151.549 22.0917 151.841 22.9333 152.424 23.55C153.024 24.1667 153.749 24.475 154.599 24.475C155.449 24.475 156.174 24.1667 156.774 23.55C157.374 22.9167 157.674 22.0667 157.674 21Z" fill="#A4161A"/>
</g>
<defs>
<filter id="filter0_d" x="0" y="1" width="41" height="44" filterUnits="userSpaceOnUse" color-interpolation-filters="sRGB">
<feFlood flood-opacity="0" result="BackgroundImageFix"/>
<feColorMatrix in="SourceAlpha" type="matrix" values="0 0 0 0 0 0 0 0 0 0 0 0 0 0 0 0 0 0 127 0"/>
<feOffset dy="4"/>
<feGaussianBlur stdDeviation="2"/>
<feColorMatrix type="matrix" values="0 0 0 0 0 0 0 0 0 0 0 0 0 0 0 0 0 0 0.25 0"/>
<feBlend mode="normal" in2="BackgroundImageFix" result="effect1_dropShadow"/>
<feBlend mode="normal" in="SourceGraphic" in2="effect1_dropShadow" result="shape"/>
</filter>
<filter id="filter1_d" x="50.55" y="9.5" width="115.474" height="33.125" filterUnits="userSpaceOnUse" color-interpolation-filters="sRGB">
<feFlood flood-opacity="0" result="BackgroundImageFix"/>
<feColorMatrix in="SourceAlpha" type="matrix" values="0 0 0 0 0 0 0 0 0 0 0 0 0 0 0 0 0 0 127 0"/>
<feOffset dy="4"/>
<feGaussianBlur stdDeviation="2"/>
<feColorMatrix type="matrix" values="0 0 0 0 0 0 0 0 0 0 0 0 0 0 0 0 0 0 0.25 0"/>
<feBlend mode="normal" in2="BackgroundImageFix" result="effect1_dropShadow"/>
<feBlend mode="normal" in="SourceGraphic" in2="effect1_dropShadow" result="shape"/>
</filter>
</defs>
</svg>
